<svg xmlns="http://www.w3.org/2000/svg" width="16.263" height="18.233" viewBox="0 0 16.263 18.233"><defs><style>.a{fill:#333;stroke:#333;stroke-width:0.5px;}</style></defs><g transform="translate(0.25 0.25)"><g transform="translate(0 0)"><path class="a" d="M-201.379-51.271v-.519A1.21,1.21,0,0,0-202.594-53,1.21,1.21,0,0,0-203.8-51.79v.519h-6.637v-.519A1.209,1.209,0,0,0-211.646-53a1.209,1.209,0,0,0-1.209,1.209v.519H-215v16.006h15.763V-51.271Zm-2.006-.519a.8.8,0,0,1,.8-.792.8.8,0,0,1,.792.792v1.831a.8.8,0,0,1-.792.8.8.8,0,0,1-.8-.792V-51.79Zm-9.055.933v-.933a.794.794,0,0,1,.794-.794.794.794,0,0,1,.794.794v1.831a.794.794,0,0,1-.793.8.794.794,0,0,1-.8-.793v-.9Zm12.789,15.176h-14.933V-47.4h14.933Zm0-12.134h-14.933v-3.042h1.73v.9a1.209,1.209,0,0,0,1.207,1.211,1.209,1.209,0,0,0,1.211-1.207v-.9h6.637v.9a1.21,1.21,0,0,0,1.206,1.215,1.21,1.21,0,0,0,1.215-1.206v-.907h1.728Z" transform="translate(215 52.999)"/></g></g></svg>