<svg xmlns="http://www.w3.org/2000/svg" width="19.329" height="21.378" viewBox="0 0 19.329 21.378"><defs><style>.a{fill:#333;stroke:#333;stroke-width:0.3px;}</style></defs><g transform="translate(0.15 0.15)"><path class="a" d="M108.919-1.518c0-3.308-1.9-6-4.245-6s-4.245,2.693-4.245,6c0,2.687,1.238,5.006,3.039,5.75l-.4,8.01c0,.773,1.045,1.317,1.61,1.317s1.61-.545,1.61-1.332l-.4-7.995C107.68,3.488,108.919,1.17,108.919-1.518Zm-3.434,5.269h0a.321.321,0,0,0-.053.032.206.206,0,0,0-.044.032.413.413,0,0,0-.061.091.175.175,0,0,0-.015.053.329.329,0,0,0,0,.059v.018l.386,8.206c0,.345-.667.732-1.025.732s-1.025-.386-1.025-.717l.413-8.2V4.042a.391.391,0,0,0,0-.059.175.175,0,0,0-.015-.053.424.424,0,0,0-.061-.091.214.214,0,0,0-.044-.032.335.335,0,0,0-.053-.032h0c-1.651-.556-2.848-2.775-2.848-5.269-.026-3.009,1.616-5.439,3.633-5.439s3.659,2.43,3.659,5.416c0,2.5-1.2,4.722-2.848,5.278Z" transform="translate(-89.89 7.519)"/><path class="a" d="M70.694-7.381a.123.123,0,0,0-.029,0,3.768,3.768,0,0,0-.966-.138H68.235a3.776,3.776,0,0,0-.966.129.122.122,0,0,0-.029,0,3.806,3.806,0,0,0-2.81,3.677V.678a3.806,3.806,0,0,0,3.32,3.771l-.392,7.793c0,.773,1.045,1.317,1.61,1.317s1.61-.545,1.61-1.332l-.392-7.778A3.806,3.806,0,0,0,73.5.678V-3.713A3.806,3.806,0,0,0,70.694-7.381ZM72.919.678A3.22,3.22,0,0,1,69.862,3.9h0a.279.279,0,0,0-.108.029.069.069,0,0,0-.023.018.239.239,0,0,0-.067.05.339.339,0,0,0-.029.047.208.208,0,0,0-.029.05.236.236,0,0,0,0,.067v.047h0l.386,8.036c0,.345-.667.732-1.025.732s-1.025-.386-1.025-.717l.407-8.065h0V4.15a.306.306,0,0,0,0-.073.369.369,0,0,0-.026-.047.5.5,0,0,0-.032-.05.246.246,0,0,0-.061-.047l-.029-.02a.279.279,0,0,0-.108-.029h0A3.22,3.22,0,0,1,65.014.678V-3.713a3.22,3.22,0,0,1,2.049-3V1.556a.293.293,0,1,0,.585,0V-6.878a3.22,3.22,0,0,1,.586-.056h.439v8.49a.293.293,0,0,0,.586,0v-8.49H69.7a3.222,3.222,0,0,1,.586.056V1.556a.293.293,0,1,0,.585,0V-6.711a3.22,3.22,0,0,1,2.049,3Z" transform="translate(-64.429 7.519)"/></g></svg>