<svg xmlns="http://www.w3.org/2000/svg" width="17.237" height="17.238" viewBox="0 0 17.237 17.238"><defs><style>.a{fill:#333;}</style></defs><g transform="translate(-10.997 -10.962)"><path class="a" d="M26.3,10.963a3.794,3.794,0,0,0-2.341,1.215c-.007.007-2.152,2.072-3.169,3.163l-8.6-1.719a.455.455,0,0,0-.483.235l-.663,1.326a.459.459,0,0,0,.2.594l6.132,3.066-3.211,3.77a4.075,4.075,0,0,0-1.3-.214,1.317,1.317,0,0,0-.815.262,1.158,1.158,0,0,0-.394.9,1.626,1.626,0,0,0,.3.918s2.758,2.759,2.762,2.762a1.626,1.626,0,0,0,.918.3,1.158,1.158,0,0,0,.9-.394,1.317,1.317,0,0,0,.262-.815,4.068,4.068,0,0,0-.214-1.3l3.77-3.211,3.066,6.132a.459.459,0,0,0,.594.2l1.326-.663a.455.455,0,0,0,.235-.483l-1.719-8.6c1.09-1.017,3.156-3.163,3.163-3.17a3.664,3.664,0,0,0,1.215-2.507,1.812,1.812,0,0,0-.49-1.271,1.836,1.836,0,0,0-1.277-.5C26.411,10.962,26.354,10.96,26.3,10.963Zm.152.884a.817.817,0,0,1,.9.9,2.99,2.99,0,0,1-.974,1.885c-.007.007-2.159,2.241-3.308,3.308a.451.451,0,0,0-.131.407l1.7,8.507-.628.311-3.114-6.229a.462.462,0,0,0-.677-.138L15.8,24.553a.453.453,0,0,0-.138.476,4.376,4.376,0,0,1,.255,1.271.572.572,0,0,1-.069.3c-.026.032-.04.062-.207.062a.627.627,0,0,1-.394-.138s-2.568-2.567-2.569-2.569a.626.626,0,0,1-.138-.394c0-.167.03-.181.062-.207a.572.572,0,0,1,.3-.069,4.368,4.368,0,0,1,1.271.255.454.454,0,0,0,.476-.138L18.4,18.981a.463.463,0,0,0-.138-.677L12.034,15.19l.311-.628,8.507,1.7a.451.451,0,0,0,.407-.131c1.066-1.149,3.3-3.3,3.308-3.308A2.991,2.991,0,0,1,26.452,11.847Z" transform="translate(0 0)"/></g></svg>