<svg xmlns="http://www.w3.org/2000/svg" width="14.615" height="13.932" viewBox="0 0 14.615 13.932"><defs><style>.a{fill:#1aa94c;}</style></defs><path class="a" d="M-48.014,3.528a.405.405,0,0,0-.329-.276l-4.563-.662-2.036-4.132a.423.423,0,0,0-.727,0l-2.04,4.132-4.563.662a.405.405,0,0,0-.329.276.411.411,0,0,0,.1.418l3.3,3.218-.78,4.542a.41.41,0,0,0,.163.4.414.414,0,0,0,.427.033l4.083-2.149,4.079,2.145a.4.4,0,0,0,.191.045.4.4,0,0,0,.24-.077.407.407,0,0,0,.163-.4l-.784-4.538C-48.005,3.837-47.965,3.674-48.014,3.528Z" transform="translate(62.62 1.75)"/></svg>